HIERARCHY
ROOT hip
{
	OFFSET 0.000000 0.000000 0.000000 
	CHANNELS 6 Xposition Yposition Zposition Xrotation Zrotation Yrotation
	JOINT abdomen
	{
		OFFSET 0.000000 0.000000 0.000000 
		CHANNELS 3 Xrotation Zrotation Yrotation
		JOINT chest
		{
			OFFSET 0.000000 4.862840 -1.823974 
			CHANNELS 3 Xrotation Zrotation Yrotation
			JOINT neck
			{
				OFFSET 0.000000 2.209834 -0.380644 
				CHANNELS 3 Xrotation Zrotation Yrotation
				JOINT head
				{
					OFFSET 0.000000 3.388650 0.513082 
					CHANNELS 3 Xrotation Zrotation Yrotation
					End Site
					{
						OFFSET 0.000000 10.033302 0.000000 
					}
				}
			}
			JOINT lCollar
			{
				OFFSET 0.580691 8.059053 0.760605 
				CHANNELS 3 Yrotation Zrotation Xrotation
				JOINT lShldr
				{
					OFFSET 6.222462 0.009832 -0.321848 
					CHANNELS 3 Zrotation Yrotation Xrotation
					JOINT lForeArm
					{
						OFFSET 10.220657 0.024782 0.183730 
						CHANNELS 3 Yrotation Zrotation Xrotation
						JOINT lHand
						{
							OFFSET 10.719483 0.309727 0.636712 
							CHANNELS 3 Zrotation Yrotation Xrotation
							End Site
							{
								OFFSET 10.033305 0.000000 0.000000 
							}
						}
					}
				}
			}
			JOINT rCollar
			{
				OFFSET -0.580691 8.059053 0.760605 
				CHANNELS 3 Yrotation Zrotation Xrotation
				JOINT rShldr
				{
					OFFSET -6.222462 0.009832 -0.321848 
					CHANNELS 3 Zrotation Yrotation Xrotation
					JOINT rForeArm
					{
						OFFSET -10.220657 0.024782 0.183730 
						CHANNELS 3 Yrotation Zrotation Xrotation
						JOINT rHand
						{
							OFFSET -10.719483 0.309727 0.636712 
							CHANNELS 3 Zrotation Yrotation Xrotation
							End Site
							{
								OFFSET -10.033305 0.000000 0.000000 
							}
						}
					}
				}
			}
		}
	}
	JOINT lThigh
	{
		OFFSET 4.361177 -6.202389 -1.775974 
		CHANNELS 3 Xrotation Zrotation Yrotation
		JOINT lShin
		{
			OFFSET -1.317052 -18.333157 1.143369 
			CHANNELS 3 Xrotation Zrotation Yrotation
			JOINT lFoot
			{
				OFFSET -0.636132 -16.703447 -0.302338 
				CHANNELS 3 Xrotation Yrotation Zrotation
				End Site
				{
					OFFSET 0.000000 -2.207327 5.819317 
				}
			}
		}
	}
	JOINT rThigh
	{
		OFFSET -4.361177 -6.202389 -1.775974 
		CHANNELS 3 Xrotation Zrotation Yrotation
		JOINT rShin
		{
			OFFSET 1.317052 -18.333157 1.143369 
			CHANNELS 3 Xrotation Zrotation Yrotation
			JOINT rFoot
			{
				OFFSET 0.636132 -16.703447 -0.302338 
				CHANNELS 3 Xrotation Yrotation Zrotation
				End Site
				{
					OFFSET 0.000000 -2.207327 5.819317 
				}
			}
		}
	}
}
MOTION
Frames: 11
Frame Time: 0.033333
-1.036656 42.565918 -43.941460 -9.980468 -1.640625 -17.549189 31.612442 -3.008116 2.394699 -13.057294 -7.825999 3.012617 6.179342 3.667675 3.793406 1.342322 4.171993 2.649517 -7.669464 -5.567117 -0.002773 -59.196274 6.361745 13.238440 -128.522064 3.121525 39.950977 -0.047668 23.779284 -0.017873 19.362692 3.424972 -0.004313 63.958553 -17.317665 3.670094 85.362732 -2.339808 27.784620 4.712451 26.802841 2.131004 -16.573309 4.274453 3.828636 42.836811 -0.520241 -3.202075 -17.068237 -6.940370 -14.511596 -1.504094 -14.822532 -10.388590 64.479279 -0.833062 3.955568 -1.776446 -4.507568 11.943470 
-1.110413 42.707767 -43.015621 -9.892579 -1.328125 -15.888670 31.942865 -3.185785 2.200150 -13.128154 -7.416224 2.897229 8.624511 2.493170 3.501001 -1.137931 5.829369 1.784840 -7.433954 -5.751055 -0.004153 -59.713966 2.259571 12.558004 -130.048676 3.091194 39.501362 1.399985 22.723110 0.542262 20.007805 2.783222 -0.006124 65.474113 -18.419054 1.984164 78.456230 -2.705535 32.460705 4.159692 30.763193 2.133884 -15.472224 3.269894 2.772697 42.446953 -0.546252 -3.173436 -18.390427 -7.219297 -14.805446 -5.370702 -14.605063 -10.381735 69.400124 -1.161990 4.053700 -1.619291 -5.963229 11.867098 
-1.195251 42.732517 -42.097912 -9.804688 -1.279297 -14.199436 32.393341 -2.778578 2.508840 -12.871754 -7.717549 3.056602 10.409628 1.726440 2.700447 -3.627377 7.042388 0.481189 -8.058176 -5.630453 -0.010424 -59.657837 -1.682288 12.678810 -131.068100 3.102994 39.816006 4.406667 21.746468 1.639330 20.290537 4.257240 -0.004557 64.761391 -20.786085 0.097387 76.644112 -3.318767 41.047573 3.291407 32.377724 1.772806 -14.589361 2.676107 2.032836 42.826935 -0.534145 -3.206743 -20.120565 -7.417710 -15.157496 -9.011235 -14.056382 -10.423162 72.030266 -1.347653 4.107768 -1.381478 -1.915775 12.059654 
-1.377365 42.781895 -41.139202 -10.078124 -0.830078 -12.236500 32.980450 -3.140955 1.841559 -12.301090 -6.474038 2.494759 10.528158 0.680778 1.692917 -4.316212 7.168015 -0.662046 -8.061116 -6.084773 -0.006369 -59.881332 -5.384855 12.816749 -132.394257 3.174802 40.835800 4.894565 21.449068 1.792158 20.820219 4.849098 0.001447 63.148212 -23.570883 0.792869 78.147362 -3.413060 42.610813 6.888355 29.588737 3.414645 -13.124825 2.217080 2.025272 42.924793 -0.543893 -3.205395 -21.439169 -8.502932 -15.794665 -11.562066 -13.475568 -10.226055 71.377548 -1.308167 4.090185 -0.584065 2.652189 12.224390 
-1.585336 42.870674 -40.125572 -9.892579 -0.556641 -10.410156 33.015804 -3.066136 1.221955 -11.658936 -5.815887 1.823732 10.153493 1.233879 1.309023 -4.390800 6.346365 -0.879698 -8.608401 -6.497796 -0.009390 -59.332584 -7.623763 12.420697 -133.850937 3.183279 41.081009 5.223388 21.760902 1.939762 20.494390 5.005563 0.001134 61.758755 -25.623426 3.875199 79.669296 -2.938952 35.624409 12.324072 24.506828 5.177924 -11.859121 2.254714 2.084912 42.885548 -0.526936 -3.206907 -22.892635 -9.876268 -16.645714 -13.745877 -12.767931 -10.675140 67.723793 -1.054733 4.027776 -1.659197 5.881275 12.428722 
-1.789368 42.886929 -39.137306 -9.560547 -0.332031 -9.287109 33.018032 -3.038514 0.456398 -10.990598 -4.727680 1.045476 8.599748 0.886165 1.222159 -3.154417 6.287994 -0.825621 -8.557046 -6.635885 -0.005145 -58.975246 -9.295948 11.589240 -135.440765 3.128798 40.186092 2.712110 23.404266 1.074994 20.004711 3.969430 -0.002933 60.907940 -26.471426 8.141387 79.387299 -2.745936 32.952961 4.556611 25.302107 1.952770 -10.780490 2.148658 1.876844 42.885490 -0.534023 -3.209526 -24.549978 -10.300444 -17.216391 -15.717562 -11.986664 -10.695435 61.771091 -0.644383 3.874888 -4.496116 8.573645 12.955070 
-1.990074 42.914265 -38.081936 -9.433594 -0.341797 -8.935604 33.451225 -2.897935 -0.143304 -11.681679 -3.716377 0.458614 7.694048 0.758617 1.459191 -1.945797 6.110844 -0.449106 -8.314632 -6.641273 -0.007148 -59.197086 -9.057057 12.465178 -136.220306 3.145236 40.557865 5.245380 22.644054 2.028791 20.074106 3.441416 -0.001123 60.205578 -28.103622 11.313997 80.490776 -2.691980 32.279102 -1.549962 25.990828 -0.681233 -9.256203 1.992161 1.135419 42.885548 -0.526937 -3.206905 -26.093290 -9.610309 -17.265583 -16.629229 -11.062924 -10.478035 53.155479 -0.087682 3.602662 -6.239049 9.752051 13.364529 
-2.154826 42.921406 -37.022251 -8.486329 -0.292969 -9.208984 32.729858 -2.692831 -0.388145 -11.372449 -3.128511 0.098924 5.856327 0.825424 1.481389 -0.416460 6.112696 -0.243342 -8.416191 -6.385824 -0.009881 -58.904118 -8.572549 13.074978 -136.493423 3.087791 39.700462 6.288152 22.119173 2.372265 19.549643 3.326396 -0.001042 59.332493 -28.446857 13.740226 82.048798 -2.628575 31.446810 -6.480642 26.395098 -2.896523 -8.674446 1.824506 0.636803 43.158569 -0.510575 -3.223686 -27.287249 -8.635410 -17.026892 -17.646008 -10.312272 -10.774465 43.032600 0.488347 3.189942 -7.698347 9.043650 13.544777 
-2.338910 42.860825 -35.829590 -8.154297 -0.029297 -9.755864 32.476124 -2.603040 -0.719647 -11.850823 -3.238882 -0.230374 5.170253 2.896254 1.833601 -0.322872 3.525822 0.669800 -8.671601 -5.511889 -0.002581 -58.662376 -6.485783 13.101941 -135.460617 3.129098 40.186550 5.808892 21.006433 2.084671 19.079847 3.924963 -0.005971 58.801079 -29.142822 15.298413 84.038872 -2.575068 30.826361 -10.040224 27.328636 -4.649944 -7.415741 1.414741 0.577352 43.705635 -0.481265 -3.229303 -28.532721 -7.914178 -16.887886 -17.655308 -10.204485 -11.641147 33.124664 0.986250 2.691391 -6.641861 7.638420 13.190311 
-2.617929 42.722424 -34.604782 -8.105469 -0.136719 -10.097656 32.505260 -2.257113 -1.308150 -12.209467 -2.108191 -0.923760 4.161817 2.582486 2.425113 0.207099 2.644036 1.416755 -8.438931 -5.478582 -0.005535 -58.662945 -3.910579 14.894761 -133.483215 3.194246 41.200787 6.334967 20.709557 2.245666 18.879829 3.674805 0.000440 58.582367 -29.026207 15.413018 86.270546 -2.550354 30.556067 -11.666700 28.026129 -5.538163 -5.977678 1.530682 0.552032 44.807644 -0.422881 -3.288812 -30.054348 -7.484717 -16.943844 -17.154200 -10.035370 -13.401387 24.582434 1.327676 2.164415 -5.140541 7.111579 12.933440 
-2.957899 42.523563 -33.370747 -8.046876 0.029297 -11.972654 32.243477 -2.900570 -1.494368 -12.719413 -1.788864 -0.890881 4.092732 3.256986 2.926728 1.208933 2.265944 2.077003 -9.361669 -5.551469 -0.006825 -57.133820 0.126334 15.427814 -131.997559 3.242186 41.913322 5.490254 23.270689 2.175286 18.387987 4.755277 0.000726 58.369049 -28.174824 15.101369 88.492706 -2.464244 29.508575 -12.285700 28.680336 -5.965576 -4.167709 1.776217 2.549982 45.480148 -0.374246 -3.330854 -31.690725 -7.635598 -17.397133 -18.404228 -9.781733 -13.919570 21.811239 1.435154 2.002198 -7.076406 7.241501 13.198954 
